<svg width="32" height="32" viewBox="0 0 32 32" fill="none" xmlns="http://www.w3.org/2000/svg">
<rect width="32" height="32" rx="1" fill="#1B3650"/>
<path d="M25.8485 21.8622H17.2371C17.1195 21.8622 17.0068 21.8155 16.9237 21.7324C16.8405 21.6493 16.7938 21.5365 16.7938 21.419V19.0138C16.7938 18.8938 16.8415 18.7787 16.9264 18.6938C17.0112 18.609 17.1263 18.5613 17.2464 18.5613H20.0347C20.0926 18.5613 20.1496 18.5461 20.1998 18.5171C20.25 18.4882 20.2916 18.4465 20.3206 18.3963C20.3496 18.3461 20.3648 18.2892 20.3648 18.2313C20.3648 18.1733 20.3496 18.1164 20.3206 18.0662L18.988 15.7579L15.8748 10.3654C15.8457 10.3154 15.804 10.2738 15.7538 10.245C15.7036 10.2161 15.6467 10.2009 15.5888 10.2009C15.5309 10.2009 15.474 10.2161 15.4239 10.245C15.3737 10.2738 15.3319 10.3154 15.3028 10.3654L12.1881 15.7579L10.856 18.066C10.827 18.1162 10.8118 18.1731 10.8119 18.231C10.8119 18.2889 10.8271 18.3458 10.8561 18.396C10.8851 18.4461 10.9267 18.4878 10.9769 18.5168C11.027 18.5458 11.0839 18.561 11.1418 18.5611H13.8666C13.9866 18.5611 14.1017 18.6087 14.1866 18.6936C14.2714 18.7785 14.3191 18.8936 14.3191 19.0136V21.419C14.3191 21.5365 14.2724 21.6493 14.1893 21.7324C14.1062 21.8155 13.9934 21.8622 13.8759 21.8622H5.33207C5.29983 21.8621 5.26817 21.8536 5.24026 21.8375C5.21236 21.8213 5.18918 21.7981 5.17307 21.7702C5.15695 21.7423 5.14846 21.7106 5.14844 21.6784C5.14842 21.6461 5.15687 21.6145 5.17295 21.5865L8.42489 15.9538L15.1945 4.22765C15.2346 4.15841 15.2922 4.10094 15.3616 4.06098C15.4309 4.02103 15.5096 4 15.5896 4C15.6696 4 15.7483 4.02103 15.8176 4.06098C15.887 4.10094 15.9446 4.15841 15.9847 4.22765L22.7545 15.9538L26.0067 21.5861C26.0229 21.6139 26.0315 21.6456 26.0316 21.6779C26.0317 21.7101 26.0233 21.7418 26.0073 21.7698C25.9913 21.7978 25.9681 21.8211 25.9403 21.8373C25.9124 21.8535 25.8807 21.8621 25.8485 21.8622Z" fill="#EAF0F6"/>
<path d="M3.96598 23.9688H13.8765C13.994 23.9688 14.1068 24.0154 14.1899 24.0986C14.273 24.1817 14.3197 24.2944 14.3197 24.412V27.5558C14.3197 27.6733 14.273 27.786 14.1899 27.8692C14.1068 27.9523 13.994 27.999 13.8765 27.999H2.6352C2.52367 27.999 2.4141 27.9697 2.31751 27.9139C2.22091 27.8582 2.14071 27.778 2.08497 27.6814C2.02924 27.5848 1.99993 27.4752 2 27.3637C2.00007 27.2521 2.02952 27.1426 2.08538 27.0461L3.80864 24.0603C3.82471 24.0325 3.84778 24.0095 3.87554 23.9934C3.90331 23.9773 3.9348 23.9688 3.96687 23.9688H3.96598Z" fill="#57C7FF"/>
<path d="M29.0924 27.9992H17.2362C17.1186 27.9992 17.0059 27.9525 16.9228 27.8694C16.8397 27.7863 16.793 27.6735 16.793 27.556V24.412C16.793 24.2944 16.8397 24.1817 16.9228 24.0986C17.0059 24.0155 17.1186 23.9688 17.2362 23.9688H27.7628C27.7949 23.9685 27.8265 23.9769 27.8543 23.993C27.8821 24.0091 27.9052 24.0323 27.921 24.0603L29.6442 27.0458C29.7 27.1424 29.7294 27.2519 29.7295 27.3634C29.7295 27.4749 29.7002 27.5845 29.6445 27.681C29.5887 27.7776 29.5086 27.8578 29.412 27.9136C29.3155 27.9694 29.2059 27.9987 29.0944 27.9988L29.0924 27.9992Z" fill="#68ECB3"/>
</svg>
